# xmcd
#
# Track frame offsets: 
#        150
#        18862
#        42882
#        77163
#        86786
#        101797
#        146998
#        151391
#        161341
#
# Disc length: 2517 seconds
#
# Revision: 0
# Processed by: cddbd v1.5.2PL0 Copyright (c) Steve Scherf et al.
# Submitted via: ExactAudioCopy v1.0b4
#
DISCID=6c09d309
DTITLE=Ten Years After - Hear Them Calling (LP1)
DYEAR=1976
DGENRE=Blues
TTITLE0=The Sounds
TTITLE1=I Can't Keep From Crying Sometimes
TTITLE2=Spider In My Web
TTITLE3=I Want To Know
TTITLE4=Speed Kills
TTITLE5=I May Be Wrong But I Won't Be Wrong Always
TTITLE6=Three Blind Mice
TTITLE7=Portable People
TTITLE8=I'm Going Home
EXTD=
EXTT0=
EXTT1=
EXTT2=
EXTT3=
EXTT4=
EXTT5=
EXTT6=
EXTT7=
EXTT8=
PLAYORDER=
